<svg xmlns="http://www.w3.org/2000/svg" width="323.203" height="65.393" viewBox="0 0 323.203 65.393">
  <g id="gifttowallet-01" transform="translate(-14.157 -12.85)">
    <path id="Path_1" data-name="Path 1" d="M147.87,76.39V68.54a1.83,1.83,0,0,0-1.82-1.82H114.36a1.81,1.81,0,0,1-1.81-1.82V26.14a1.81,1.81,0,0,1,1.81-1.82h31.7a1.83,1.83,0,0,0,1.82-1.82V14.67a1.81,1.81,0,0,1,3.1-1.28l30.8,30.85a1.83,1.83,0,0,1,0,2.57L151,77.67a1.81,1.81,0,0,1-3.13-1.28Z" fill="#00b9f9"/>
    <path id="Path_2" data-name="Path 2" d="M129.64,42v9.65c0,1,.65,1.58,2,1.58h.81v6.58h-6.11a4.59,4.59,0,0,1-3.54-1.18,5.67,5.67,0,0,1-1.07-3.86V42H119.2V35.37h2.48v-6h8v6h2.76V42Z" fill="#fff"/>
    <path id="Path_3" data-name="Path 3" d="M151.19,34.53a13.12,13.12,0,0,1,13.57,13.38,12.46,12.46,0,0,1-1.43,5.82,12.72,12.72,0,0,1-5.53,5.45,15.1,15.1,0,0,1-14.44-.54,11.68,11.68,0,0,1-4.71-5.38,13.5,13.5,0,0,1-1.15-5.58A12.44,12.44,0,0,1,142,37.55,13.82,13.82,0,0,1,151.19,34.53Zm0,7.06a5.45,5.45,0,0,0-4.28,1.82,6.17,6.17,0,0,0-1.43,4.25,5.89,5.89,0,0,0,1.69,4.48,5.54,5.54,0,0,0,4,1.59,5.33,5.33,0,0,0,4-1.67,6,6,0,0,0,1.58-4.27,6.36,6.36,0,0,0-1.59-4.66,5.38,5.38,0,0,0-3.99-1.54Z" fill="#fff"/>
    <path id="Path_4" data-name="Path 4" d="M216.46,35.5h8.07l-7.66,24.29H208.4l-3.64-13.18-3.6,13.18h-8.71L184.88,35.5h8.06l4.27,13.31,3.56-13.31h7.63l3.79,13.31Z" fill="#33e54c"/>
    <path id="Path_5" data-name="Path 5" d="M247.77,38.14V35.5h8V59.79h-8V57.08a10.41,10.41,0,0,1-8.25,3.68,11.06,11.06,0,0,1-9.16-4.3A13.14,13.14,0,0,1,227.62,48a14.83,14.83,0,0,1,1.82-7.22,11.76,11.76,0,0,1,4.17-4.46,12.37,12.37,0,0,1,6.58-1.79,9.52,9.52,0,0,1,4.08.82A11.69,11.69,0,0,1,247.77,38.14Zm-5.82,3a5.16,5.16,0,0,0-4.45,2.22,7.54,7.54,0,0,0-1.38,4.46,6.82,6.82,0,0,0,1.89,5,5.3,5.3,0,0,0,3.89,1.64,5.44,5.44,0,0,0,4.43-2.22,7.12,7.12,0,0,0,1.56-4.53,6.74,6.74,0,0,0-2-5.15,5.57,5.57,0,0,0-3.89-1.4Z" fill="#33e54c"/>
    <path id="Path_6" data-name="Path 6" d="M271.72,59.79h-8V24.85h8Z" fill="#33e54c"/>
    <path id="Path_7" data-name="Path 7" d="M287.72,59.79h-8V24.85h8Z" fill="#33e54c"/>
    <path id="Path_8" data-name="Path 8" d="M319.89,49.35H301.51A5.16,5.16,0,0,0,302.85,52,5.64,5.64,0,0,0,307,53.73a5.82,5.82,0,0,0,2.9-.71,4.63,4.63,0,0,0,1.89-2l7.35,1.87a14.37,14.37,0,0,1-3.92,5,13.15,13.15,0,0,1-8.34,2.89,14.82,14.82,0,0,1-7.1-1.76,12.2,12.2,0,0,1-4.65-4.33,13.18,13.18,0,0,1-1.9-7.14,14,14,0,0,1,1.59-6.6,10.94,10.94,0,0,1,4.79-4.82,14.48,14.48,0,0,1,6.8-1.58A14.67,14.67,0,0,1,313,36a11.59,11.59,0,0,1,5.56,5.74,16.1,16.1,0,0,1,1.33,6.57A6.969,6.969,0,0,1,319.89,49.35Zm-8.11-4.23a4.77,4.77,0,0,0-1.33-2.58,5.63,5.63,0,0,0-3.92-1.41,5.33,5.33,0,0,0-3.39,1,4.75,4.75,0,0,0-1.7,2.95Z" fill="#33e54c"/>
    <path id="Path_9" data-name="Path 9" d="M334.56,42v9.65c0,1,.65,1.58,1.94,1.58h.82v6.58H331.2a4.58,4.58,0,0,1-3.53-1.18,5.62,5.62,0,0,1-1.07-3.86V42h-2.49V35.37h2.49v-6h8v6h2.76V42Z" fill="#33e54c"/>
    <path id="Path_10" data-name="Path 10" d="M33,40H50.77v1.8a17.81,17.81,0,0,1-5.74,13.76,18.2,18.2,0,0,1-12.72,4.91,18.62,18.62,0,0,1-8.71-2.11,17.45,17.45,0,0,1-6.83-6.3,18,18,0,0,1-2.61-9.6,17.68,17.68,0,0,1,18-18,19.07,19.07,0,0,1,8.16,1.77,18,18,0,0,1,6.44,5.06l-6.37,5a9.85,9.85,0,0,0-8-4,8.85,8.85,0,0,0-8,4.27,11.13,11.13,0,0,0-1.8,6.06A10.09,10.09,0,0,0,32.86,52.81a9,9,0,0,0,5.32-1.61,8.83,8.83,0,0,0,3.34-4.41H33Z" fill="#33e54c"/>
    <path id="Path_11" data-name="Path 11" d="M60,24.5a4,4,0,0,1,3,1.27,4.31,4.31,0,0,1,1.11,3,4,4,0,0,1-1.2,3,4.08,4.08,0,0,1-3,1.18,4,4,0,0,1-3.1-1.27,4.17,4.17,0,0,1-1.12-2.94,4.11,4.11,0,0,1,1.19-3A4.2,4.2,0,0,1,60,24.5Zm3.91,11.17v24.1H56V35.67Z" fill="#33e54c"/>
    <path id="Path_12" data-name="Path 12" d="M80.29,42.22V59.77h-7.9V42.22H70V35.67h2.38v-.4q0-7.32,4.93-9.3a16,16,0,0,1,5.76-.86v7.31q-2.79.33-2.79,2.85v.4h2.79v6.55Z" fill="#33e54c"/>
    <path id="Path_13" data-name="Path 13" d="M98.11,42.1v9.57c0,1,.65,1.57,1.93,1.57h.82v6.53H94.79a4.55,4.55,0,0,1-3.51-1.17,5.62,5.62,0,0,1-1.06-3.83V42.1H87.75V35.55h2.47v-6h7.89v6h2.75V42.1Z" fill="#33e54c"/>
  </g>
</svg>
